# xmcd
#
# Track frame offsets:
#	182
#	14120
#	28192
#	43050
#	55770
#	71672
#	82855
#	99282
#	107762
#	120555
#	135922
#	149792
#	160247
#	168897
#
# Disc length: 2478
#
# Revision: 2
# Processed by: cddbd v1.5.1PL0 Copyright (c) Steve Scherf et al.
# Submitted via: audiograbber 1.83.01
# Normalized: r1:DSETVAR1
#
DISCID=ba09ac0e
DTITLE=Various Artist - Classic Country, volume 4 (four)
DYEAR=1900
DGENRE=Country
TTITLE0=Dolly Parton - Two Doors Down
TTITLE1=Charley Pride - Detroit City
TTITLE2=Razzy Bailey - Tonight She's Gonna Love Me
TTITLE3=Dave and Sugar - Queen Of The Silver Dollar
TTITLE4=Ronnie Milsap - Only One Love In My Life
TTITLE5=Jerry Reed - Guitar Man
TTITLE6=Waylon Jennings - Sweet Music Man
TTITLE7=Dolly Parton - Life's Like Poetry
TTITLE8=George Hamilton IV - Early Morning Rain
TTITLE9=Ray Stevens - Take Your Love
TTITLE10=Willie Nelson - Good-Hearted Woman
TTITLE11=Dottie West - I'm Your Country Girl
TTITLE12=Jim Reeves - From A Jack To A King
TTITLE13=Alabama - Ride The Train
EXTD=
EXTT0=
EXTT1=
EXTT2=
EXTT3=
EXTT4=
EXTT5=
EXTT6=
EXTT7=
EXTT8=
EXTT9=
EXTT10=
EXTT11=
EXTT12=
EXTT13=
PLAYORDER=
